<svg width="500" height="500" viewBox="0 0 500 500" fill="none" xmlns="http://www.w3.org/2000/svg">
<g clip-path="url(#clip0_307_768)">
<path d="M380 0H120C53.7258 0 0 53.7258 0 120V380C0 446.274 53.7258 500 120 500H380C446.274 500 500 446.274 500 380V120C500 53.7258 446.274 0 380 0Z" fill="black"/>
<path d="M184.184 116.837H138.265V155.102H100V201.02H138.265V239.286H184.184V201.02H222.449V155.102H184.184V116.837Z" fill="white"/>
<path d="M277.551 178.061L338.776 116.837L400 178.061L338.776 239.286L277.551 178.061Z" fill="white"/>
<path d="M161.224 294.388C161.224 317.933 170.578 340.513 187.226 357.162C203.875 373.81 226.455 383.163 250 383.163C273.545 383.163 296.125 373.81 312.774 357.162C329.422 340.513 338.776 317.933 338.776 294.388H161.224Z" fill="white"/>
</g>
<defs>
<clipPath id="clip0_307_768">
<rect width="500" height="500" fill="white"/>
</clipPath>
</defs>
</svg>
