<svg width="500" height="72" viewBox="0 0 500 72" fill="none" xmlns="http://www.w3.org/2000/svg">
<g clip-path="url(#clip0_311_1103)">
<path d="M469.569 70.661L469.522 23.5537H482.523L482.57 27.0396C484.141 25.5322 485.978 24.3545 488.082 23.5066C490.217 22.6587 492.463 22.2347 494.818 22.2347C496.545 22.2347 498.273 22.4859 500 22.9884L494.865 36.1313C493.735 35.6603 492.588 35.4247 491.426 35.4247C489.793 35.4247 488.302 35.8173 486.951 36.6024C485.601 37.3875 484.533 38.4553 483.748 39.8057C482.963 41.1247 482.57 42.6164 482.57 44.2809V70.661H469.569Z" fill="black"/>
<path d="M400.876 0H413.877V70.661H400.876V65.6676C399.431 67.4891 397.641 68.9808 395.506 70.1428C393.37 71.3048 390.936 71.8857 388.204 71.8857C384.781 71.8857 381.577 71.2419 378.594 69.9543C375.611 68.6667 372.973 66.8924 370.68 64.6312C368.419 62.3387 366.644 59.7007 365.357 56.7172C364.069 53.7337 363.425 50.5304 363.425 47.1073C363.425 43.6842 364.069 40.4809 365.357 37.4974C366.644 34.514 368.419 31.8916 370.68 29.6305C372.973 27.3379 375.611 25.5479 378.594 24.2603C381.577 22.9727 384.781 22.3289 388.204 22.3289C390.936 22.3289 393.37 22.9099 395.506 24.0718C397.641 25.2024 399.431 26.6941 400.876 28.547V0ZM388.392 59.4023C390.528 59.4023 392.459 58.8527 394.187 57.7536C395.914 56.6544 397.28 55.1784 398.285 53.3255C399.29 51.4412 399.792 49.3685 399.792 47.1073C399.792 44.8147 399.29 42.742 398.285 40.8891C397.28 39.0363 395.914 37.5602 394.187 36.4611C392.459 35.3619 390.528 34.8123 388.392 34.8123C386.225 34.8123 384.263 35.3619 382.504 36.4611C380.745 37.5602 379.348 39.052 378.311 40.9362C377.275 42.7891 376.757 44.8462 376.757 47.1073C376.757 49.3685 377.275 51.4412 378.311 53.3255C379.379 55.1784 380.792 56.6544 382.551 57.7536C384.31 58.8527 386.257 59.4023 388.392 59.4023Z" fill="black"/>
<path d="M313.948 53.42V23.554H326.95V49.8399C326.95 51.5043 327.342 53.0117 328.127 54.3622C328.944 55.6812 330.027 56.7332 331.378 57.5183C332.728 58.3035 334.204 58.696 335.806 58.696C337.439 58.696 338.931 58.3035 340.281 57.5183C341.631 56.7332 342.699 55.6812 343.484 54.3622C344.269 53.0117 344.662 51.5043 344.662 49.8399V23.554H357.664L357.711 70.6613H344.709L344.662 67.0811C343.092 68.5886 341.239 69.7662 339.103 70.6142C336.999 71.4621 334.77 71.8861 332.414 71.8861C329.022 71.8861 325.929 71.0537 323.134 69.3894C320.339 67.7248 318.109 65.5109 316.445 62.7472C314.78 59.9522 313.948 56.8431 313.948 53.42Z" fill="black"/>
<path d="M242.227 70.661V0H255.229V70.661H242.227Z" fill="black"/>
<path d="M211.602 70.661H196.621L186.635 53.4668L180.888 60.2974V70.661H167.886V0H180.888V40.0883L194.737 23.5537H211.696L195.538 42.9148L211.602 70.661Z" fill="black"/>
<path d="M132.235 70.661L132.188 23.5537H145.189L145.236 27.0396C146.806 25.5322 148.644 24.3545 150.748 23.5066C152.883 22.6587 155.129 22.2347 157.484 22.2347C159.211 22.2347 160.939 22.4859 162.666 22.9884L157.531 36.1313C156.401 35.6603 155.254 35.4247 154.092 35.4247C152.459 35.4247 150.968 35.8173 149.617 36.6024C148.267 37.3875 147.199 38.4553 146.414 39.8057C145.629 41.1247 145.236 42.6164 145.236 44.2809V70.661H132.235Z" fill="black"/>
<path d="M28.547 70.6613H15.7338L0 23.554H12.719L22.1875 51.7713L31.5619 23.554H44.2809L53.6552 51.7713L63.0767 23.554H75.8428L60.0618 70.6613H47.2957L37.9214 42.3969L28.547 70.6613Z" fill="black"/>
<path d="M110.4 21.0673H91.7458V36.6122H76.2009V55.2661H91.7458V70.811H110.4V55.2661H125.945V36.6122H110.4V21.0673Z" fill="black"/>
<path d="M260.253 45.9392L285.125 21.0673L309.996 45.9392L285.125 70.811L260.253 45.9392Z" fill="black"/>
<path d="M464.202 34.7531C459.42 29.9715 452.935 27.2853 446.173 27.2853C439.411 27.2853 432.926 29.9715 428.144 34.7531C423.363 39.5347 420.676 46.0199 420.676 52.7821C420.676 59.5442 423.362 66.0294 428.144 70.811L464.202 34.7531Z" fill="black"/>
</g>
<defs>
<clipPath id="clip0_311_1103">
<rect width="500" height="72" fill="white"/>
</clipPath>
</defs>
</svg>
